<svg width="24" height="24" viewBox="0 0 24 24" fill="none" xmlns="http://www.w3.org/2000/svg">
<path d="M5.62493 12C5.62493 10.8109 5.95253 9.69705 6.52168 8.7433V4.69766H2.47605C0.870364 6.78301 0 9.32449 0 12C0 14.6755 0.870364 17.217 2.47605 19.3023H6.52168V15.2567C5.95253 14.3029 5.62493 13.1891 5.62493 12Z" fill="#FBBD00"/>
<path d="M12 18.3751L9.1875 21.1876L12 24.0001C14.6755 24.0001 17.2169 23.1297 19.3023 21.524V17.4827H15.261C14.2989 18.0539 13.1803 18.3751 12 18.3751Z" fill="#0F9D58"/>
<path d="M6.52171 15.2567L2.47607 19.3023C2.79398 19.7152 3.14014 20.1105 3.51472 20.4852C5.78119 22.7516 8.7946 23.9998 11.9999 23.9998V18.3749C9.67378 18.3749 7.63507 17.1224 6.52171 15.2567Z" fill="#31AA52"/>
<path d="M23.9998 12C23.9998 11.2699 23.9338 10.5385 23.8033 9.82608L23.6978 9.24957H12V14.8745H17.693C17.1402 15.9742 16.2901 16.8714 15.261 17.4825L19.3023 21.5238C19.7152 21.2059 20.1105 20.8598 20.4852 20.4852C22.7516 18.2187 23.9998 15.2052 23.9998 12Z" fill="#3C79E6"/>
<path d="M16.5077 7.49208L17.0049 7.98923L20.9823 4.01184L20.4852 3.51469C18.2187 1.24822 15.2053 0 12 0L9.1875 2.81246L12 5.62493C13.7027 5.62493 15.3036 6.28801 16.5077 7.49208Z" fill="#CF2D48"/>
<path d="M11.9999 5.62493V0C8.79465 0 5.78124 1.24822 3.51472 3.51464C3.14014 3.88922 2.79398 4.2846 2.47607 4.69752L6.52171 8.74315C7.63512 6.87741 9.67383 5.62493 11.9999 5.62493Z" fill="#EB4132"/>
</svg>
