<svg width="30" height="30" viewBox="0 0 30 30" fill="none" xmlns="http://www.w3.org/2000/svg">
<path d="M24.9985 2.5H9.99854C8.62354 2.5 7.49854 3.625 7.49854 5V20C7.49854 21.375 8.62354 22.5 9.99854 22.5H24.9985C26.3735 22.5 27.4985 21.375 27.4985 20V5C27.4985 3.625 26.3735 2.5 24.9985 2.5ZM14.3735 11.875C14.3735 12.9125 13.536 13.75 12.4985 13.75H11.2485V16.25H9.37354V8.75H12.4985C13.536 8.75 14.3735 9.5875 14.3735 10.625V11.875ZM20.6235 14.375C20.6235 15.4125 19.786 16.25 18.7485 16.25H15.6235V8.75H18.7485C19.786 8.75 20.6235 9.5875 20.6235 10.625V14.375ZM25.6235 10.625H23.7485V11.875H25.6235V13.75H23.7485V16.25H21.8735V8.75H25.6235V10.625ZM11.2485 11.875H12.4985V10.625H11.2485V11.875ZM4.99854 7.5H2.49854V25C2.49854 26.375 3.62354 27.5 4.99854 27.5H22.4985V25H4.99854V7.5ZM17.4985 14.375H18.7485V10.625H17.4985V14.375Z" fill="white"/>
</svg>
